<mxfile host="app.diagrams.net" modified="2023-11-27T19:24:13.872Z" agent="Mozilla/5.0 (Windows NT 10.0; Win64; x64) AppleWebKit/537.36 (KHTML, like Gecko) Chrome/118.0.0.0 Safari/537.36 OPR/104.0.0.0" etag="oQzKpSN4r3OGLy0kN5XH" version="22.1.4" type="device">
  <diagram name="Página-1" id="S2wlQ8VmE5MWqK715mNM">
    <mxGraphModel dx="1073" dy="586" grid="1" gridSize="10" guides="1" tooltips="1" connect="1" arrows="1" fold="1" page="1" pageScale="1" pageWidth="827" pageHeight="1169" math="0" shadow="0">
      <root>
        <mxCell id="0" />
        <mxCell id="1" parent="0" />
        <mxCell id="lSfAA1VdW0rDP46Kuy6g-1" value="" style="swimlane;fontStyle=1;align=center;verticalAlign=top;childLayout=stackLayout;horizontal=1;startSize=26;horizontalStack=0;resizeParent=1;resizeParentMax=0;resizeLast=0;collapsible=1;marginBottom=0;whiteSpace=wrap;html=1;" vertex="1" parent="1">
          <mxGeometry x="394" y="220" width="180" height="70" as="geometry" />
        </mxCell>
        <mxCell id="lSfAA1VdW0rDP46Kuy6g-3" value="" style="line;strokeWidth=1;fillColor=none;align=left;verticalAlign=middle;spacingTop=-1;spacingLeft=3;spacingRight=3;rotatable=0;labelPosition=right;points=[];portConstraint=eastwest;strokeColor=inherit;" vertex="1" parent="lSfAA1VdW0rDP46Kuy6g-1">
          <mxGeometry y="26" width="180" height="8" as="geometry" />
        </mxCell>
        <mxCell id="lSfAA1VdW0rDP46Kuy6g-4" value="+ draw(Graphics graphics)" style="text;strokeColor=none;fillColor=none;align=left;verticalAlign=top;spacingLeft=4;spacingRight=4;overflow=hidden;rotatable=0;points=[[0,0.5],[1,0.5]];portConstraint=eastwest;whiteSpace=wrap;html=1;" vertex="1" parent="lSfAA1VdW0rDP46Kuy6g-1">
          <mxGeometry y="34" width="180" height="36" as="geometry" />
        </mxCell>
        <mxCell id="lSfAA1VdW0rDP46Kuy6g-5" value="«interface»&lt;br&gt;&lt;b&gt;DrawingStrategy&lt;/b&gt;" style="html=1;whiteSpace=wrap;" vertex="1" parent="1">
          <mxGeometry x="390" y="200" width="190" height="50" as="geometry" />
        </mxCell>
        <mxCell id="lSfAA1VdW0rDP46Kuy6g-6" value="CircleStrategy" style="swimlane;fontStyle=1;align=center;verticalAlign=top;childLayout=stackLayout;horizontal=1;startSize=26;horizontalStack=0;resizeParent=1;resizeParentMax=0;resizeLast=0;collapsible=1;marginBottom=0;whiteSpace=wrap;html=1;" vertex="1" parent="1">
          <mxGeometry x="180" y="360" width="160" height="60" as="geometry" />
        </mxCell>
        <mxCell id="lSfAA1VdW0rDP46Kuy6g-8" value="" style="line;strokeWidth=1;fillColor=none;align=left;verticalAlign=middle;spacingTop=-1;spacingLeft=3;spacingRight=3;rotatable=0;labelPosition=right;points=[];portConstraint=eastwest;strokeColor=inherit;" vertex="1" parent="lSfAA1VdW0rDP46Kuy6g-6">
          <mxGeometry y="26" width="160" height="8" as="geometry" />
        </mxCell>
        <mxCell id="lSfAA1VdW0rDP46Kuy6g-9" value="+ draw(Graphics graphics)" style="text;strokeColor=none;fillColor=none;align=left;verticalAlign=top;spacingLeft=4;spacingRight=4;overflow=hidden;rotatable=0;points=[[0,0.5],[1,0.5]];portConstraint=eastwest;whiteSpace=wrap;html=1;" vertex="1" parent="lSfAA1VdW0rDP46Kuy6g-6">
          <mxGeometry y="34" width="160" height="26" as="geometry" />
        </mxCell>
        <mxCell id="lSfAA1VdW0rDP46Kuy6g-11" value="RectangleStrategy" style="swimlane;fontStyle=1;align=center;verticalAlign=top;childLayout=stackLayout;horizontal=1;startSize=26;horizontalStack=0;resizeParent=1;resizeParentMax=0;resizeLast=0;collapsible=1;marginBottom=0;whiteSpace=wrap;html=1;" vertex="1" parent="1">
          <mxGeometry x="620" y="360" width="160" height="60" as="geometry" />
        </mxCell>
        <mxCell id="lSfAA1VdW0rDP46Kuy6g-12" value="" style="line;strokeWidth=1;fillColor=none;align=left;verticalAlign=middle;spacingTop=-1;spacingLeft=3;spacingRight=3;rotatable=0;labelPosition=right;points=[];portConstraint=eastwest;strokeColor=inherit;" vertex="1" parent="lSfAA1VdW0rDP46Kuy6g-11">
          <mxGeometry y="26" width="160" height="8" as="geometry" />
        </mxCell>
        <mxCell id="lSfAA1VdW0rDP46Kuy6g-13" value="+ draw(Graphics graphics)" style="text;strokeColor=none;fillColor=none;align=left;verticalAlign=top;spacingLeft=4;spacingRight=4;overflow=hidden;rotatable=0;points=[[0,0.5],[1,0.5]];portConstraint=eastwest;whiteSpace=wrap;html=1;" vertex="1" parent="lSfAA1VdW0rDP46Kuy6g-11">
          <mxGeometry y="34" width="160" height="26" as="geometry" />
        </mxCell>
        <mxCell id="lSfAA1VdW0rDP46Kuy6g-15" value="Shape" style="swimlane;fontStyle=1;align=center;verticalAlign=top;childLayout=stackLayout;horizontal=1;startSize=26;horizontalStack=0;resizeParent=1;resizeParentMax=0;resizeLast=0;collapsible=1;marginBottom=0;whiteSpace=wrap;html=1;" vertex="1" parent="1">
          <mxGeometry x="365" y="500" width="240" height="120" as="geometry" />
        </mxCell>
        <mxCell id="lSfAA1VdW0rDP46Kuy6g-16" value="- DrawingStrategy&lt;span style=&quot;background-color: initial;&quot;&gt;:&amp;nbsp;&lt;/span&gt;&lt;span style=&quot;background-color: initial;&quot;&gt;strategy&lt;/span&gt;" style="text;strokeColor=none;fillColor=none;align=left;verticalAlign=top;spacingLeft=4;spacingRight=4;overflow=hidden;rotatable=0;points=[[0,0.5],[1,0.5]];portConstraint=eastwest;whiteSpace=wrap;html=1;" vertex="1" parent="lSfAA1VdW0rDP46Kuy6g-15">
          <mxGeometry y="26" width="240" height="24" as="geometry" />
        </mxCell>
        <mxCell id="lSfAA1VdW0rDP46Kuy6g-17" value="" style="line;strokeWidth=1;fillColor=none;align=left;verticalAlign=middle;spacingTop=-1;spacingLeft=3;spacingRight=3;rotatable=0;labelPosition=right;points=[];portConstraint=eastwest;strokeColor=inherit;" vertex="1" parent="lSfAA1VdW0rDP46Kuy6g-15">
          <mxGeometry y="50" width="240" height="8" as="geometry" />
        </mxCell>
        <mxCell id="lSfAA1VdW0rDP46Kuy6g-18" value="+ Shape(DrawingStrategy strategy)&lt;br&gt;&lt;br&gt;+&amp;nbsp;draw(Graphics g): void" style="text;strokeColor=none;fillColor=none;align=left;verticalAlign=top;spacingLeft=4;spacingRight=4;overflow=hidden;rotatable=0;points=[[0,0.5],[1,0.5]];portConstraint=eastwest;whiteSpace=wrap;html=1;" vertex="1" parent="lSfAA1VdW0rDP46Kuy6g-15">
          <mxGeometry y="58" width="240" height="62" as="geometry" />
        </mxCell>
        <mxCell id="lSfAA1VdW0rDP46Kuy6g-19" style="edgeStyle=orthogonalEdgeStyle;rounded=0;orthogonalLoop=1;jettySize=auto;html=1;entryX=-0.017;entryY=0.113;entryDx=0;entryDy=0;entryPerimeter=0;endArrow=block;endFill=0;startSize=12;endSize=15;dashed=1;dashPattern=8 8;" edge="1" parent="1" source="lSfAA1VdW0rDP46Kuy6g-6" target="lSfAA1VdW0rDP46Kuy6g-18">
          <mxGeometry relative="1" as="geometry" />
        </mxCell>
        <mxCell id="lSfAA1VdW0rDP46Kuy6g-20" style="edgeStyle=orthogonalEdgeStyle;rounded=0;orthogonalLoop=1;jettySize=auto;html=1;entryX=0.992;entryY=0.065;entryDx=0;entryDy=0;entryPerimeter=0;endArrow=block;endFill=0;startSize=15;jumpSize=15;endSize=15;dashed=1;dashPattern=8 8;" edge="1" parent="1" source="lSfAA1VdW0rDP46Kuy6g-11" target="lSfAA1VdW0rDP46Kuy6g-18">
          <mxGeometry relative="1" as="geometry" />
        </mxCell>
        <mxCell id="lSfAA1VdW0rDP46Kuy6g-21" style="edgeStyle=orthogonalEdgeStyle;rounded=0;orthogonalLoop=1;jettySize=auto;html=1;entryX=0.506;entryY=1.028;entryDx=0;entryDy=0;entryPerimeter=0;startSize=15;endSize=15;" edge="1" parent="1" source="lSfAA1VdW0rDP46Kuy6g-15" target="lSfAA1VdW0rDP46Kuy6g-4">
          <mxGeometry relative="1" as="geometry" />
        </mxCell>
        <mxCell id="lSfAA1VdW0rDP46Kuy6g-22" value="CompositeShape" style="swimlane;fontStyle=1;align=center;verticalAlign=top;childLayout=stackLayout;horizontal=1;startSize=26;horizontalStack=0;resizeParent=1;resizeParentMax=0;resizeLast=0;collapsible=1;marginBottom=0;whiteSpace=wrap;html=1;" vertex="1" parent="1">
          <mxGeometry x="379" y="730" width="210" height="170" as="geometry" />
        </mxCell>
        <mxCell id="lSfAA1VdW0rDP46Kuy6g-23" value="- children: List&amp;lt;Shape&amp;gt;" style="text;strokeColor=none;fillColor=none;align=left;verticalAlign=top;spacingLeft=4;spacingRight=4;overflow=hidden;rotatable=0;points=[[0,0.5],[1,0.5]];portConstraint=eastwest;whiteSpace=wrap;html=1;" vertex="1" parent="lSfAA1VdW0rDP46Kuy6g-22">
          <mxGeometry y="26" width="210" height="34" as="geometry" />
        </mxCell>
        <mxCell id="lSfAA1VdW0rDP46Kuy6g-24" value="" style="line;strokeWidth=1;fillColor=none;align=left;verticalAlign=middle;spacingTop=-1;spacingLeft=3;spacingRight=3;rotatable=0;labelPosition=right;points=[];portConstraint=eastwest;strokeColor=inherit;" vertex="1" parent="lSfAA1VdW0rDP46Kuy6g-22">
          <mxGeometry y="60" width="210" height="10" as="geometry" />
        </mxCell>
        <mxCell id="lSfAA1VdW0rDP46Kuy6g-25" value="+ addShape(Shape shape): void&lt;br&gt;&lt;br&gt;+&amp;nbsp; draw(Graphics g): void&lt;br&gt;&lt;br&gt;+ getShapesCount(): int&amp;nbsp;" style="text;strokeColor=none;fillColor=none;align=left;verticalAlign=top;spacingLeft=4;spacingRight=4;overflow=hidden;rotatable=0;points=[[0,0.5],[1,0.5]];portConstraint=eastwest;whiteSpace=wrap;html=1;" vertex="1" parent="lSfAA1VdW0rDP46Kuy6g-22">
          <mxGeometry y="70" width="210" height="100" as="geometry" />
        </mxCell>
        <mxCell id="lSfAA1VdW0rDP46Kuy6g-27" style="edgeStyle=orthogonalEdgeStyle;rounded=0;orthogonalLoop=1;jettySize=auto;html=1;entryX=0.496;entryY=1.016;entryDx=0;entryDy=0;entryPerimeter=0;endArrow=none;endFill=0;startArrow=diamondThin;startFill=1;targetPerimeterSpacing=4;startSize=23;" edge="1" parent="1" source="lSfAA1VdW0rDP46Kuy6g-22" target="lSfAA1VdW0rDP46Kuy6g-18">
          <mxGeometry relative="1" as="geometry" />
        </mxCell>
        <mxCell id="lSfAA1VdW0rDP46Kuy6g-28" value="DrawingView" style="swimlane;fontStyle=1;align=center;verticalAlign=top;childLayout=stackLayout;horizontal=1;startSize=26;horizontalStack=0;resizeParent=1;resizeParentMax=0;resizeLast=0;collapsible=1;marginBottom=0;whiteSpace=wrap;html=1;" vertex="1" parent="1">
          <mxGeometry x="320" y="1040" width="330" height="290" as="geometry" />
        </mxCell>
        <mxCell id="lSfAA1VdW0rDP46Kuy6g-29" value="+ drawCircleButton:&amp;nbsp;JButton&lt;br&gt;&lt;br&gt;+&amp;nbsp;drawRectangleButton:&amp;nbsp;JButton&lt;br&gt;&lt;br&gt;+&amp;nbsp;drawingPanel: JPanel&lt;br&gt;&lt;br&gt;+ statusLabel: JLabel" style="text;strokeColor=none;fillColor=none;align=left;verticalAlign=top;spacingLeft=4;spacingRight=4;overflow=hidden;rotatable=0;points=[[0,0.5],[1,0.5]];portConstraint=eastwest;whiteSpace=wrap;html=1;" vertex="1" parent="lSfAA1VdW0rDP46Kuy6g-28">
          <mxGeometry y="26" width="330" height="114" as="geometry" />
        </mxCell>
        <mxCell id="lSfAA1VdW0rDP46Kuy6g-30" value="" style="line;strokeWidth=1;fillColor=none;align=left;verticalAlign=middle;spacingTop=-1;spacingLeft=3;spacingRight=3;rotatable=0;labelPosition=right;points=[];portConstraint=eastwest;strokeColor=inherit;" vertex="1" parent="lSfAA1VdW0rDP46Kuy6g-28">
          <mxGeometry y="140" width="330" height="8" as="geometry" />
        </mxCell>
        <mxCell id="lSfAA1VdW0rDP46Kuy6g-31" value="&lt;div&gt;+ addDrawCircleListener(listener: ActionListener): void&lt;/div&gt;&lt;div&gt;&lt;br&gt;&lt;/div&gt;&lt;div&gt;+ addDrawRectangleListener(listener: ActionListener): void&lt;/div&gt;&lt;div&gt;&lt;br&gt;&lt;/div&gt;&lt;div&gt;+ setStatusText(text: String): void&lt;/div&gt;&lt;div&gt;&lt;br&gt;&lt;/div&gt;&lt;div&gt;+ update(o: Observable, arg: Object): void&lt;/div&gt;&lt;div&gt;&lt;br&gt;&lt;/div&gt;&lt;div&gt;+ getDrawingPanel(): JPanel&lt;/div&gt;" style="text;strokeColor=none;fillColor=none;align=left;verticalAlign=top;spacingLeft=4;spacingRight=4;overflow=hidden;rotatable=0;points=[[0,0.5],[1,0.5]];portConstraint=eastwest;whiteSpace=wrap;html=1;" vertex="1" parent="lSfAA1VdW0rDP46Kuy6g-28">
          <mxGeometry y="148" width="330" height="142" as="geometry" />
        </mxCell>
        <mxCell id="lSfAA1VdW0rDP46Kuy6g-33" style="edgeStyle=orthogonalEdgeStyle;rounded=0;orthogonalLoop=1;jettySize=auto;html=1;entryX=0.505;entryY=1.01;entryDx=0;entryDy=0;entryPerimeter=0;endArrow=block;endFill=0;dashed=1;startSize=11;endSize=15;dashPattern=8 8;" edge="1" parent="1" source="lSfAA1VdW0rDP46Kuy6g-28" target="lSfAA1VdW0rDP46Kuy6g-25">
          <mxGeometry relative="1" as="geometry" />
        </mxCell>
      </root>
    </mxGraphModel>
  </diagram>
</mxfile>
